#!OML:ASF C:\ViconDB\ViconDB\414\Spring2016\041811\Spring2016.ASF
:FULLY-SPECIFIED
:DEGREES
354
root 10.9136 18.1939 -7.11313 -11.6498 50.6931 201.51
lowerback 30.346 3.67433 17.851
upperback 2.02568 10.4249 -0.396587
thorax -10.2574 3.90979 -13.3497
lowerneck -23.3479 2.30044 -3.41801
upperneck 26.8225 -1.24358 21.834
head 13.2433 1.88627 9.22191
rclavicle -1.52667e-013 -3.49861e-014
rhumerus 61.5265 -33.2173 -32.2293
rradius 38.5392
rwrist 18.9811
rhand -65.6167 -78.6328
rfingers 7.12502
rthumb -37.4808 104.571
lclavicle -2.4371e-013 -2.8625e-014
lhumerus 33.5013 27.2751 -1.84037
lradius 35.5596
lwrist 7.32058
lhand -58.8564 84.657
lfingers 7.12502
lthumb -31.0625 -112.047
rfemur 143.515 241.376 -133.968
rtibia -70.7084
rfoot 56.0419 -111.992
rtoes 20.5361
lfemur -44.0064 -2.77236 9.34318
ltibia 45.5344
lfoot 5.34094 -4.82387
ltoes -11.5207
355
root 10.9666 18.2173 -7.3053 -9.00332 49.0653 203.621
lowerback 30.4332 4.08995 17.0085
upperback 2.15898 10.5719 -0.76501
thorax -10.1856 4.006 -13.3769
lowerneck -23.6472 2.93325 -2.46706
upperneck 27.1374 -0.656557 21.6453
head 13.3451 2.23752 9.10411
rclavicle -1.52667e-013 -3.49861e-014
rhumerus 61.5265 -33.2173 -32.2293
rradius 38.5392
rwrist 18.9811
rhand -65.6167 -78.6328
rfingers 7.12502
rthumb -37.4808 104.571
lclavicle -2.50469e-014 9.54166e-015
lhumerus 32.0697 27.8638 -3.1887
lradius 35.3106
lwrist 8.08964
lhand -58.7706 84.6336
lfingers 7.12502
lthumb -30.9807 -112.039
rfemur 145.987 240.491 -134.617
rtibia -71.5908
rfoot 57.7114 -111.606
rtoes 21.3358
lfemur -45.6579 -1.27336 12.4286
ltibia 45.6211
lfoot 3.43699 -2.08919
ltoes -10.8478
356
root 11.0022 18.2177 -7.51282 -6.86276 48.1965 205.951
lowerback 31.0469 4.0657 16.4677
upperback 2.41772 10.3233 -1.16622
thorax -10.2636 3.89047 -13.5197
lowerneck -24.1154 3.54741 -1.61535
upperneck 27.6023 -0.119489 21.5578
head 13.566 2.57467 9.07793
rclavicle -1.52667e-013 -3.49861e-014
rhumerus 61.5265 -33.2173 -32.2293
rradius 38.5392
rwrist 18.9811
rhand -65.6167 -78.6328
rfingers 7.12502
rthumb -37.4808 104.571
lclavicle -7.95139e-016 8.42847e-014
lhumerus 30.6338 28.4342 -3.96966
lradius 35.1456
lwrist 8.53448
lhand -58.6942 84.6857
lfingers 7.12502
lthumb -30.9079 -112.105
rfemur 148.907 240.701 -136.341
rtibia -72.2508
rfoot 59.5028 -110.975
rtoes 20.2975
lfemur -46.9236 -0.698548 14.9507
ltibia 45.7094
lfoot 1.34299 0.930835
ltoes -9.4842
357
root 11.0382 18.2134 -7.71703 -4.57535 47.491 208.608
lowerback 31.7957 4.07622 15.5579
upperback 2.62567 10.0261 -1.48368
thorax -10.5482 3.73968 -13.3871
lowerneck -24.1872 4.08726 -1.22585
upperneck 27.6934 0.46071 21.8508
head 13.5359 2.90583 9.2395
rclavicle -1.52667e-013 -3.49861e-014
rhumerus 61.5265 -33.2173 -32.2293
rradius 38.5392
rwrist 18.9811
rhand -65.6167 -78.6328
rfingers 7.12502
rthumb -37.4808 104.571
lclavicle 3.03345e-013 -1.27222e-014
lhumerus 29.254 28.7017 -4.58322
lradius 34.8962
lwrist 9.00104
lhand -58.7037 84.578
lfingers 7.12502
lthumb -30.9169 -111.995
rfemur 151.764 241.043 -138.557
rtibia -72.7185
rfoot 61.1719 -110.697
rtoes 19.9048
lfemur -48.0798 -0.657393 17.2948
ltibia 45.7466
lfoot -0.866271 4.76911
ltoes -8.67161
358
root 11.0703 18.2097 -7.91109 -2.01881 46.3329 211.032
lowerback 31.9208 4.39208 14.5029
upperback 2.77239 9.97514 -1.78892
thorax -10.5844 3.74094 -13.1755
lowerneck -24.2197 4.56197 -0.57899
upperneck 27.9006 0.868985 21.9234
head 13.5824 3.15899 9.24341
rclavicle -1.52667e-013 -3.49861e-014
rhumerus 61.5265 -33.2173 -32.2293
rradius 38.5392
rwrist 18.9811
rhand -65.6167 -78.6328
rfingers 7.12502
rthumb -37.4808 104.571
lclavicle -1.01778e-013 -3.49861e-014
lhumerus 27.8057 29.0298 -4.95802
lradius 34.9569
lwrist 9.19364
lhand -58.7019 84.6952
lfingers 7.12502
lthumb -30.9152 -112.113
rfemur 153.272 240.727 -139.306
rtibia -73.0704
rfoot 62.8374 -110.45
rtoes 21.0636
lfemur -49.2159 0.729749 19.5736
ltibia 45.7511
lfoot -3.11239 7.58706
ltoes -8.13518
359
root 11.0814 18.2013 -8.09276 0.561214 45.1053 213.789
lowerback 32.1266 4.70057 13.2148
upperback 2.97786 9.81449 -2.19157
thorax -10.6421 3.69613 -12.916
lowerneck -24.1369 5.03986 0.0524396
upperneck 28.0709 1.29743 22.0114
head 13.5878 3.41524 9.24703
rclavicle -1.52667e-013 -3.49861e-014
rhumerus 61.5265 -33.2173 -32.2293
rradius 38.5392
rwrist 18.9811
rhand -65.6167 -78.6328
rfingers 7.12502
rthumb -37.4808 104.571
lclavicle 8.18993e-014 0
lhumerus 26.4292 29.3459 -5.6341
lradius 34.7686
lwrist 9.54582
lhand -58.666 84.971
lfingers 7.12502
lthumb -30.881 -112.395
rfemur 155.113 240.461 -140.86
rtibia -73.3144
rfoot 64.1823 -110.316
rtoes 21.3601
lfemur -50.0421 1.9838 21.4864
ltibia 45.843
lfoot -5.51137 10.554
ltoes -7.16653
360
root 11.0883 18.1839 -8.27105 2.95156 44.0095 216.384
lowerback 31.9997 4.93306 11.9817
upperback 3.45369 9.53438 -2.50399
thorax -10.2856 3.6529 -12.4727
lowerneck -24.4655 5.46576 0.531367
upperneck 28.2511 1.70714 21.94
head 13.686 3.64943 9.24027
rclavicle -1.52667e-013 -3.49861e-014
rhumerus 61.5265 -33.2173 -32.2293
rradius 38.5392
rwrist 18.9811
rhand -65.6167 -78.6328
rfingers 7.12502
rthumb -37.4808 104.571
lclavicle -4.6118e-014 1.90833e-014
lhumerus 24.9349 30.2186 -5.85599
lradius 34.6844
lwrist 9.45754
lhand -58.5944 85.3381
lfingers 7.12502
lthumb -30.8127 -112.775
rfemur 156.246 240.514 -141.656
rtibia -73.4503
rfoot 65.139 -109.613
rtoes 20.8417
lfemur -50.7824 3.01029 23.4415
ltibia 45.9354
lfoot -7.96043 13.909
ltoes -6.31971
361
root 11.1069 18.15 -8.45796 5.28263 43.1059 219.207
lowerback 32.3406 5.06717 10.6822
upperback 3.71859 9.1688 -2.88802
thorax -10.3781 3.50952 -12.113
lowerneck -24.3601 5.73388 0.835837
upperneck 28.3983 1.90672 22.1632
head 13.7081 3.7837 9.32559
rclavicle -1.52667e-013 -3.49861e-014
rhumerus 61.5265 -33.2173 -32.2293
rradius 38.5392
rwrist 18.9811
rhand -65.6167 -78.6328
rfingers 7.12502
rthumb -37.4808 104.571
lclavicle -1.90436e-013 -1.27222e-014
lhumerus 23.9554 30.9837 -5.64969
lradius 34.4073
lwrist 8.94433
lhand -58.6179 84.5875
lfingers 7.12502
lthumb -30.8351 -112.02
rfemur 157.473 240.727 -142.927
rtibia -73.3836
rfoot 65.9233 -109.46
rtoes 21.2728
lfemur -51.668 3.5941 25.1472
ltibia 46.0395
lfoot -9.19557 18.2097
ltoes -4.54496
362
root 11.1239 18.1056 -8.64212 7.53763 42.2337 221.806
lowerback 32.337 5.18386 9.61849
upperback 4.12033 8.82749 -3.26804
thorax -10.1206 3.40845 -11.8212
lowerneck -24.5786 6.02283 1.32363
upperneck 28.6018 2.13002 21.9387
head 13.8264 3.91204 9.21879
rclavicle -1.52667e-013 -3.49861e-014
rhumerus 61.5265 -33.2173 -32.2293
rradius 38.5392
rwrist 18.9811
rhand -65.6167 -78.6328
rfingers 7.12502
rthumb -37.4808 104.571
lclavicle 2.10712e-014 -1.90833e-014
lhumerus 22.909 31.864 -5.41481
lradius 34.3749
lwrist 8.55612
lhand -58.5623 84.378
lfingers 7.12502
lthumb -30.7821 -111.821
rfemur 158.213 240.953 -143.658
rtibia -73.2647
rfoot 66.0589 -108.569
rtoes 19.8494
lfemur -52.4538 4.5474 26.7333
ltibia 46.0415
lfoot -12.1368 19.7568
ltoes -3.83821
363
root 11.1366 18.0576 -8.82019 9.64938 41.3073 224.298
lowerback 32.3809 5.36698 8.57743
upperback 4.48831 8.60157 -3.57389
thorax -9.89339 3.34983 -11.4992
lowerneck -24.5689 6.25212 1.58852
upperneck 28.6392 2.36044 21.8457
head 13.8143 4.02355 9.16808
rclavicle -1.52667e-013 -3.49861e-014
rhumerus 61.5265 -33.2173 -32.2293
rradius 38.5392
rwrist 18.9811
rhand -65.6167 -78.6328
rfingers 7.12502
rthumb -37.4808 104.571
lclavicle -6.16232e-014 2.54444e-014
lhumerus 22.199 32.6144 -5.0571
lradius 34.0911
lwrist 8.31437
lhand -58.5056 84.5849
lfingers 7.12502
lthumb -30.728 -112.038
rfemur 159.048 241.03 -144.471
rtibia -73.1154
rfoot 65.4069 -108.507
rtoes 19.8384
lfemur -53.0022 5.75668 28.2402
ltibia 45.9822
lfoot -14.1292 20.8873
ltoes -3.1844
364
root 11.1522 18.0128 -8.99507 11.3944 40.5592 226.678
lowerback 32.9598 5.35232 7.77565
upperback 4.83997 8.21931 -3.99067
thorax -9.88501 3.18362 -11.4217
lowerneck -24.7499 6.5148 2.04262
upperneck 28.8045 2.52289 21.7879
head 13.922 4.1381 9.12685
rclavicle -1.52667e-013 -3.49861e-014
rhumerus 61.5265 -33.2173 -32.2293
rradius 38.5392
rwrist 18.9811
rhand -65.6167 -78.6328
rfingers 7.12502
rthumb -37.4808 104.571
lclavicle 2.3059e-014 -7.95139e-014
lhumerus 21.4869 33.3834 -4.89057
lradius 33.8711
lwrist 8.10524
lhand -58.463 84.6531
lfingers 7.12502
lthumb -30.6874 -112.114
rfemur 160.233 241.287 -145.395
rtibia -72.9718
rfoot 65.088 -108.15
rtoes 19.3743
lfemur -53.392 6.71084 29.794
ltibia 45.8851
lfoot -15.8349 21.8797
ltoes -3.00935
365
root 11.1644 17.9631 -9.16974 13.2946 39.7653 229.172
lowerback 33.1927 5.42229 6.70785
upperback 5.29054 7.87367 -4.17905
thorax -9.67122 3.06586 -10.9178
lowerneck -24.7978 6.79227 2.14631
upperneck 28.8452 2.91139 21.5995
head 13.8915 4.29267 9.0898
rclavicle -1.52667e-013 -3.49861e-014
rhumerus 61.5265 -33.2173 -32.2293
rradius 38.5392
rwrist 18.9811
rhand -65.6167 -78.6328
rfingers 7.12502
rthumb -37.4808 104.571
lclavicle -1.24837e-013 3.18055e-015
lhumerus 20.276 34.0149 -4.63081
lradius 33.8969
lwrist 8.03966
lhand -58.4104 84.4955
lfingers 7.12502
lthumb -30.6373 -111.965
rfemur 161.084 241.382 -146.108
rtibia -72.8667
rfoot 64.8713 -107.869
rtoes 18.9082
lfemur -53.9205 7.73158 31.158
ltibia 45.862
lfoot -16.8058 22.4625
ltoes -2.42415
